<?xml version="1.0" standalone="no"?><!DOCTYPE svg PUBLIC "-//W3C//DTD SVG 1.1//EN" "http://www.w3.org/Graphics/SVG/1.1/DTD/svg11.dtd"><svg class="icon" width="200px" height="200.00px" viewBox="0 0 1024 1024" version="1.1" xmlns="http://www.w3.org/2000/svg"><path d="M801.9968 353.5872a24.3712 24.3712 0 0 1 15.9744 9.4208 24.1664 24.1664 0 0 1-4.7104 33.8944L658.5344 513.8432l154.624 154.624a24.2688 24.2688 0 0 1-34.2016 34.4064L619.4176 543.3344l-68.8128 51.9168a53.5552 53.5552 0 0 1-61.44 0l-68.3008-51.8144-138.1376 138.0352A230.6048 230.6048 0 0 1 552.96 837.2224h163.84a170.2912 170.2912 0 0 0 170.0864-169.8816V395.776a168.3456 168.3456 0 0 0-21.7088-82.6368 230.4 230.4 0 0 1-67.7888 40.3456 24.7808 24.7808 0 0 1 4.608 0.1024z" fill="#FFBA00" /><path d="M226.6112 701.952a24.064 24.064 0 0 1 0.6144-33.5872l154.624-154.624-154.7264-116.8384a23.9616 23.9616 0 0 1-9.4208-15.9744 24.3712 24.3712 0 0 1 20.48-27.3408A23.9616 23.9616 0 0 1 256 358.4l262.7584 198.144h1.3312a5.12 5.12 0 0 0 1.6384 0L784.0768 358.4h0.6144A230.8096 230.8096 0 0 1 501.76 225.8944H307.2a170.2912 170.2912 0 0 0-170.0864 169.8816v271.5648a168.3456 168.3456 0 0 0 23.552 86.016 231.424 231.424 0 0 1 65.9456-51.4048z" fill="#FFBA00" /><path d="M423.5264 532.48l72.3968 54.6816a43.1104 43.1104 0 0 0 48.4352 0L616.7552 532.48a5.2224 5.2224 0 0 1 6.8608 0l162.6112 162.816a13.824 13.824 0 0 0 19.3536-19.456L646.7584 516.9152a5.2224 5.2224 0 0 1-1.536-4.096 5.3248 5.3248 0 0 1 2.048-3.7888L806.912 388.5056a13.7216 13.7216 0 1 0-16.5888-21.9136L527.872 564.9408a15.0528 15.0528 0 0 1-15.2576 0L249.9584 366.592a13.7216 13.7216 0 0 0-8.2944-2.7648h-1.8432a13.824 13.824 0 0 0-11.776 15.4624 13.6192 13.6192 0 0 0 5.3248 9.0112l159.5392 120.7296a5.3248 5.3248 0 0 1 2.048 3.7888 5.2224 5.2224 0 0 1-1.536 4.096L234.5984 675.84a13.7216 13.7216 0 0 0 2.048 21.1968 228.7616 228.7616 0 0 1 25.7024-10.24L416.6656 532.48a5.2224 5.2224 0 0 1 6.8608 0z" fill="#FCFCFC" /><path d="M489.5744 595.3536a53.5552 53.5552 0 0 0 61.44 0l68.8128-51.9168 159.0272 159.4368a24.2688 24.2688 0 0 0 34.2016-34.4064l-154.624-154.624 154.8288-116.9408a24.1664 24.1664 0 0 0 4.7104-33.8944 24.3712 24.3712 0 0 0-15.9744-9.4208 24.7808 24.7808 0 0 0-4.5056 0c-4.1984 1.6384-8.4992 3.1744-12.8 4.5056h-0.6144L522.24 556.3392a5.12 5.12 0 0 1-1.6384 0h-1.3312L256 358.4a23.9616 23.9616 0 0 0-17.92-4.7104 24.1664 24.1664 0 0 0-11.264 43.3152l154.624 116.9408-154.624 154.624a24.064 24.064 0 0 0-0.6144 33.5872l4.9152-2.4576h-0.6144a19.0464 19.0464 0 0 1 0-26.9312l159.232-159.5392-159.4368-120.5248a18.944 18.944 0 1 1 22.8352-30.72l262.4512 198.7584a8.192 8.192 0 0 0 4.5056 1.024 7.9872 7.9872 0 0 0 4.5056-1.024l262.656-198.3488a18.944 18.944 0 0 1 22.9376 30.72L650.5472 513.2288 808.96 672.1536a19.0464 19.0464 0 0 1-26.9312 26.9312L619.9296 536.3712l-72.3968 54.6816a46.8992 46.8992 0 0 1-54.784 0l-72.3968-54.6816-147.456 147.456 10.24-2.3552L420.864 543.4368z" fill="#FFFFFF" /><path d="M234.5984 695.296a13.824 13.824 0 0 1 0-19.456l158.8224-158.9248a5.2224 5.2224 0 0 0 1.536-4.096 5.3248 5.3248 0 0 0-2.048-3.7888L233.3696 388.5056a13.6192 13.6192 0 0 1-5.3248-9.0112 13.824 13.824 0 0 1 11.776-15.4624h1.8432a13.7216 13.7216 0 0 1 8.2944 2.7648l262.656 198.2464a15.0528 15.0528 0 0 0 15.2576 0L790.4256 366.592a13.7216 13.7216 0 0 1 16.5888 21.9136L647.3728 509.0304a5.3248 5.3248 0 0 0-2.048 3.7888 5.2224 5.2224 0 0 0 1.536 4.096L805.5808 675.84a13.824 13.824 0 0 1-19.456 19.6608L623.616 532.48a5.2224 5.2224 0 0 0-6.8608 0l-72.3968 54.6816a43.1104 43.1104 0 0 1-48.4352 0L423.5264 532.48a5.2224 5.2224 0 0 0-6.8608 0L262.4512 686.8992l10.24-3.072 147.456-147.3536 72.3968 54.6816a46.8992 46.8992 0 0 0 54.784 0l72.3968-54.6816 162.7136 162.5088A19.0464 19.0464 0 0 0 808.96 672.1536L650.5472 513.2288l159.5392-120.5248a18.944 18.944 0 1 0-22.9376-30.72L524.6976 560.7424a7.9872 7.9872 0 0 1-4.5056 1.024 8.192 8.192 0 0 1-4.5056-1.024L253.1328 362.3936a18.944 18.944 0 1 0-22.8352 30.72l159.4368 120.1152-158.8224 158.8224a19.0464 19.0464 0 0 0 0 26.9312h0.6144l5.2224-2.4576a13.7216 13.7216 0 0 1-2.1504-1.2288z" fill="#FFFFFF" /><path d="M307.2 837.2224h245.76a230.6048 230.6048 0 0 0-270.2336-155.7504l-21.2992 21.2992a24.2688 24.2688 0 0 1-34.304 0l-0.6144-0.7168a231.424 231.424 0 0 0-65.8432 51.2A170.1888 170.1888 0 0 0 307.2 837.2224z" fill="#FFBA00" /><path d="M307.2 837.2224h245.76a230.6048 230.6048 0 0 0-270.2336-155.7504l-21.2992 21.2992a24.2688 24.2688 0 0 1-34.304 0l-0.6144-0.7168a231.424 231.424 0 0 0-65.8432 51.2A170.1888 170.1888 0 0 0 307.2 837.2224z" fill="#FEC744" /><path d="M254.0544 695.296l8.3968-8.3968a228.7616 228.7616 0 0 0-25.7024 10.24 13.824 13.824 0 0 0 17.3056-1.8432z" fill="#FCFCFC" /><path d="M254.0544 695.296l8.3968-8.3968a228.7616 228.7616 0 0 0-25.7024 10.24 13.824 13.824 0 0 0 17.3056-1.8432z" fill="#FFFFFF" /><path d="M257.7408 698.9824a18.944 18.944 0 0 1-26.3168 0l-4.9152 2.4576 0.6144 0.7168a24.2688 24.2688 0 0 0 34.304 0l21.2992-21.2992-10.24 2.3552z" fill="#FFFFFF" /><path d="M257.7408 698.9824a18.944 18.944 0 0 1-26.3168 0l-4.9152 2.4576 0.6144 0.7168a24.2688 24.2688 0 0 0 34.304 0l21.2992-21.2992-10.24 2.3552z" fill="#FFFFFF" /><path d="M257.7408 698.9824l15.1552-15.1552-10.24 3.072-8.3968 8.3968a13.824 13.824 0 0 1-17.408 1.7408l-5.2224 2.4576a18.944 18.944 0 0 0 26.112-0.512z" fill="#FFFFFF" /><path d="M257.7408 698.9824l15.1552-15.1552-10.24 3.072-8.3968 8.3968a13.824 13.824 0 0 1-17.408 1.7408l-5.2224 2.4576a18.944 18.944 0 0 0 26.112-0.512z" fill="#FFFFFF" /><path d="M715.264 368.64a230.4 230.4 0 0 0 69.3248-10.24 23.9616 23.9616 0 0 1 12.8-4.5056 230.4 230.4 0 0 0 67.7888-40.3456A170.1888 170.1888 0 0 0 716.8 225.8944H501.76A230.6048 230.6048 0 0 0 715.264 368.64z" fill="#FFBA00" /><path d="M715.264 368.64a230.4 230.4 0 0 0 69.3248-10.24 23.9616 23.9616 0 0 1 12.8-4.5056 230.4 230.4 0 0 0 67.7888-40.3456A170.1888 170.1888 0 0 0 716.8 225.8944H501.76A230.6048 230.6048 0 0 0 715.264 368.64z" fill="#FEC744" /></svg>