<?xml version="1.0" standalone="no"?><!DOCTYPE svg PUBLIC "-//W3C//DTD SVG 1.1//EN" "http://www.w3.org/Graphics/SVG/1.1/DTD/svg11.dtd"><svg class="icon" width="200px" height="200.00px" viewBox="0 0 1024 1024" version="1.1" xmlns="http://www.w3.org/2000/svg"><path d="M0 57.824l662.338 838.966 58.876-199.756z" fill="#C6CBCB" /><path d="M462.94 468.128l-45.466 118.498 244.864 310.164 58.876-199.756z" fill="#D672AD" /><path d="M662.338 896.79l-60.976-149.292L0 57.824l534.078 733.83z" fill="#D1D5D5" /><path d="M601.362 747.498L256.524 966.174 0 57.824zM721.214 697.034L0 57.824l1024 506.742z" fill="#E2E5E7" /><path d="M365.292 476.764l-117.786 457.484 9.018 31.926 345.166-218.938zM981.854 543.712L462.94 468.128 720.964 697.88 1024 564.566z" fill="#EA8EBC" /><path d="M365.292 476.764l-117.786 457.484 135.096-437.678zM462.94 468.128l23.012 20.492 495.902 55.092z" fill="#D672AD" /><path d="M601.69 747.236l-68.374 43.372 52.326 43.312z" fill="#C6CBCB" /><path d="M25.428 147.868l20.584-37.276L0 57.824zM55.82 107.296l46.462 1.144L0 57.824z" fill="#EA8EBC" /></svg>