<?xml version="1.0" standalone="no"?><!DOCTYPE svg PUBLIC "-//W3C//DTD SVG 1.1//EN" "http://www.w3.org/Graphics/SVG/1.1/DTD/svg11.dtd"><svg class="icon" width="200px" height="200.00px" viewBox="0 0 1024 1024" version="1.1" xmlns="http://www.w3.org/2000/svg"><path d="M551.1 549.6m-306 0a306 306 0 1 0 612 0 306 306 0 1 0-612 0Z" fill="#25B195" /><path d="M515.3 884.8c-49.6 0-97.8-9.7-143.1-28.9-43.8-18.5-83.1-45-116.9-78.8-33.8-33.8-60.3-73.1-78.8-116.9-19.2-45.3-28.9-93.5-28.9-143.1s9.7-97.8 28.9-143.1c18.5-43.8 45-83.1 78.8-116.9 33.8-33.8 73.1-60.3 116.9-78.8 45.3-19.2 93.5-28.9 143.1-28.9s97.8 9.7 143.1 28.9c43.8 18.5 83.1 45 116.9 78.8 33.8 33.8 60.3 73.1 78.8 116.9 19.2 45.2 28.9 93.4 28.9 143s-9.7 97.8-28.9 143.1c-18.5 43.8-45 83.1-78.8 116.9-33.8 33.8-73.1 60.3-116.9 78.8-45.3 19.2-93.5 29-143.1 29z m0-694.5c-180.2 0-326.7 146.6-326.7 326.7s146.6 326.7 326.7 326.7C695.4 843.8 842 697.2 842 517S695.4 190.3 515.3 190.3z" fill="#666767" /><path d="M562.3 633.8C538.8 669 515 696.3 475 696.6c-0.4 0-0.9 0-1.3-0.1-27.1-4.7-38.2-24.3-32.3-44.3l52-172c1.3-4.2-0.8-8.7-4.7-10.1-3.8-1.4-11.4 3.6-17.9 10.7l-19.5 23.4c-4.1 5-12.3 1.9-12.1-4.6v-0.2c0-1.3 0.4-2.6 1.2-3.6 23.5-34.4 61.2-61.3 87-61.7h0.9c24.5 2.8 36.2 22.4 32.1 44.1 0 0.3-0.1 0.5-0.2 0.8l-52 172c-0.1 0.3-0.2 0.7-0.2 1.1-0.4 3.8 1.6 7.4 5 8.6 3.8 1.4 11.9-3.6 18.4-10.8l18.8-22.7c4.2-5 12.4-1.8 12.1 4.7v1.9zM555.3 409.1c-19.9 0-36-14.4-36-35.8 0-21.3 16.1-35.8 36-35.8s36 14.5 36 35.8c0 21.3-16.1 35.8-36 35.8z" fill="#595857" /></svg>